<?xml version="1.0" standalone="no"?>
<!DOCTYPE svg PUBLIC "-//W3C//DTD SVG 20010904//EN"
 "http://www.w3.org/TR/2001/REC-SVG-20010904/DTD/svg10.dtd">
<svg version="1.0" xmlns="http://www.w3.org/2000/svg"
 width="512.000000pt" height="512.000000pt" viewBox="0 0 512.000000 512.000000"
 preserveAspectRatio="xMidYMid meet">
<metadata>
Created by potrace 1.14, written by Peter Selinger 2001-2017
</metadata>
<g transform="translate(0.000000,512.000000) scale(0.100000,-0.100000)"
fill="#000000" stroke="none">
<path d="M3018 4063 c-16 -2 -28 -8 -28 -12 0 -5 -39 -13 -87 -20 -49 -6 -101
-15 -118 -20 -16 -6 -48 -14 -70 -20 -75 -18 -110 -29 -195 -61 -47 -18 -105
-39 -130 -48 -63 -21 -190 -83 -190 -93 0 -4 -13 -10 -30 -14 -16 -4 -30 -11
-30 -16 0 -5 -5 -9 -12 -9 -6 0 -48 -21 -92 -47 -44 -26 -89 -46 -98 -45 -19
3 -48 -19 -48 -36 0 -5 -39 -40 -87 -77 -49 -37 -110 -94 -138 -126 -27 -33
-73 -87 -102 -120 -29 -33 -55 -69 -58 -80 -4 -11 -31 -42 -61 -71 -30 -28
-54 -56 -54 -62 0 -5 -15 -26 -33 -46 -38 -39 -117 -164 -117 -184 0 -6 -5
-17 -11 -23 -17 -17 -69 -150 -80 -203 -5 -25 -14 -70 -20 -100 -17 -84 -8
-439 11 -466 13 -18 14 -40 8 -120 -10 -140 -9 -511 2 -559 5 -22 12 -75 15
-117 4 -49 11 -78 18 -78 7 0 19 31 28 68 9 37 31 88 48 114 17 25 31 48 31
52 0 6 38 66 67 105 32 44 111 121 135 131 13 6 37 19 55 29 17 11 56 25 87
33 31 7 56 18 56 24 0 8 41 13 123 17 105 4 131 9 185 33 34 15 62 33 62 39 0
6 14 25 31 41 17 16 40 39 52 52 11 12 29 22 39 22 10 0 26 4 36 9 59 30 119
49 197 61 39 7 90 16 115 20 25 5 108 9 186 9 157 1 190 -8 263 -74 83 -75
108 -315 47 -450 -15 -33 -31 -69 -36 -80 -15 -38 -82 -170 -89 -175 -3 -3
-13 -18 -21 -35 -8 -16 -45 -60 -82 -99 -38 -38 -68 -72 -68 -76 0 -3 -34 -42
-76 -86 -41 -43 -81 -86 -87 -94 -12 -16 -137 -124 -196 -170 -34 -27 -128
-116 -323 -307 -69 -68 -129 -123 -133 -123 -9 0 -18 -8 -88 -74 -27 -25 -51
-46 -53 -46 -3 0 -22 -13 -42 -30 -20 -16 -66 -52 -101 -80 -60 -47 -62 -50
-35 -50 19 0 50 17 90 48 34 26 72 54 84 62 13 8 36 30 53 47 17 18 36 33 43
33 7 0 17 6 21 13 4 7 20 20 36 30 22 14 94 84 234 230 41 42 154 142 175 154
14 9 32 26 38 37 6 12 26 32 44 46 101 78 266 235 292 279 8 14 33 39 55 54
21 16 39 34 39 42 0 7 4 15 9 17 26 10 143 179 171 248 7 19 17 37 20 40 3 3
14 28 24 55 10 28 27 70 39 95 31 69 36 240 8 344 -27 101 -54 137 -139 180
-49 25 -58 26 -214 25 -90 0 -185 -4 -213 -9 -27 -5 -86 -16 -130 -24 -118
-21 -298 -100 -310 -135 -3 -11 -12 -22 -20 -25 -8 -3 -15 -12 -15 -20 0 -9
-24 -27 -52 -42 -49 -24 -66 -26 -215 -31 -182 -6 -198 -3 -393 85 -77 34
-181 149 -208 231 -14 39 -15 332 -2 401 4 25 13 72 19 105 22 110 127 322
201 404 17 18 30 36 30 40 0 5 27 33 60 64 33 30 60 62 60 70 0 8 24 41 53 74
29 32 64 75 77 94 57 81 241 231 300 244 16 4 34 14 39 23 10 18 57 47 151 94
36 18 88 47 117 65 29 18 61 33 73 33 11 0 20 5 20 10 0 6 9 10 21 10 11 0 33
6 47 13 196 100 582 187 769 173 118 -8 174 -15 198 -26 11 -5 43 -11 72 -14
28 -3 72 -14 97 -25 25 -12 52 -21 61 -21 50 0 175 -72 282 -163 25 -21 65
-43 89 -49 24 -7 44 -16 44 -20 0 -4 6 -8 14 -8 7 0 35 -24 60 -52 26 -29 58
-65 71 -79 14 -14 25 -29 25 -33 0 -4 9 -17 21 -29 11 -12 37 -46 57 -76 20
-30 51 -71 69 -90 18 -20 33 -39 33 -42 0 -6 29 -41 65 -80 8 -9 15 -21 15
-27 0 -7 4 -12 9 -12 10 0 73 -85 84 -112 3 -10 11 -18 17 -18 5 0 10 -5 10
-11 0 -5 26 -48 58 -95 31 -47 62 -93 67 -103 6 -11 16 -25 23 -33 7 -9 18
-31 25 -51 17 -49 139 -236 155 -236 6 -1 12 -7 12 -14 0 -8 9 -24 20 -37 11
-13 20 -26 20 -30 0 -4 11 -20 25 -36 14 -16 28 -40 32 -54 3 -14 9 -27 12
-30 16 -13 51 -98 52 -125 0 -16 7 -46 14 -65 13 -34 13 -33 14 45 0 65 -3 85
-19 105 -11 14 -20 29 -20 34 0 19 -45 103 -82 153 -21 29 -38 55 -38 58 0 6
-40 65 -50 75 -36 34 -120 171 -120 195 0 6 -10 25 -22 42 -13 17 -30 41 -38
53 -8 12 -27 40 -42 61 -16 21 -28 43 -28 49 0 5 -4 10 -9 10 -5 0 -16 15 -25
34 -8 18 -22 39 -31 46 -8 7 -15 19 -15 26 0 8 -4 14 -9 14 -5 0 -15 15 -22
33 -14 34 -109 137 -126 137 -6 0 -13 13 -16 28 -3 15 -21 44 -39 65 -41 45
-46 52 -83 107 -16 25 -42 59 -57 75 -16 17 -28 34 -28 39 0 12 -132 136 -145
136 -30 0 -84 23 -111 48 -18 15 -40 33 -50 39 -11 7 -41 29 -69 49 -57 40
-136 78 -186 89 -19 4 -39 11 -45 16 -6 5 -44 14 -85 20 -41 6 -82 15 -91 20
-10 5 -35 9 -57 9 -22 0 -41 5 -43 12 -5 13 -242 21 -300 11z m-1682 -2209
c21 -9 53 -22 69 -29 65 -30 169 -65 194 -66 23 -1 22 -2 -9 -11 -35 -10 -49
-16 -92 -40 -61 -36 -177 -150 -202 -201 -19 -36 -29 -53 -68 -114 -16 -23
-28 -48 -29 -55 -1 -7 -7 14 -15 47 -14 65 -19 355 -7 514 l6 91 57 -60 c31
-33 74 -67 96 -76z"/>
<path d="M1538 2441 c-29 -26 -33 -35 -33 -81 0 -46 4 -55 33 -81 45 -40 84
-39 128 5 28 28 34 42 34 76 0 34 -6 48 -34 76 -44 44 -83 45 -128 5z"/>
</g>
</svg>
